<svg width="223" height="35" viewBox="0 0 223 35" fill="none" xmlns="http://www.w3.org/2000/svg">
<g clip-path="url(#clip0_133_975)">
<path d="M14.917 11.7164H19.4814V17.9483C20.5654 13.7343 23.0522 11.3654 26.7557 11.4093V16.1936C23.0946 15.7988 19.4814 18.2992 19.4814 24.0047V34.1847H14.917V11.7164Z" fill="white"/>
<path d="M48.8493 34.1847H44.2849V29.0933C43.1558 32.4272 40.6238 34.7111 36.6041 34.7111C32.0849 34.7111 29.5557 31.772 29.5557 27.1631V11.7163H34.1201V25.54C34.1201 28.9178 35.6105 30.763 38.4587 30.763C41.9843 30.763 44.2877 28.0432 44.2877 24.3995V11.7163H48.8522V34.1847H48.8493Z" fill="white"/>
<path d="M51.5985 23.1248C51.5985 15.9278 56.163 11.2312 63.1663 11.2312C69.0405 11.2312 73.3762 14.609 73.4214 20.5777H68.9021C68.586 16.6708 65.7858 15.1793 62.9376 15.1793C59.0535 15.1793 56.2956 17.9868 56.2956 22.7711C56.2956 27.5554 58.9603 30.67 63.9312 30.67C66.8669 30.67 69.4441 29.6171 72.1088 28.1256V32.2958C69.7151 33.6996 66.6411 34.6208 63.2538 34.6208C55.844 34.6208 51.5957 30.0558 51.5957 23.122L51.5985 23.1248Z" fill="white"/>
<path d="M75.8125 5.50928H80.3769V21.4578L88.2384 11.7165H93.2996L85.7995 20.5805H86.9286C91.8543 20.5805 92.8931 23.1687 92.8931 26.4176V34.1849H88.3287V26.5053C88.3287 23.9171 87.5609 23.2591 85.393 23.2591H80.3769V34.1876H75.8125V5.50928Z" fill="white"/>
<path d="M100.453 27.4127C100.317 27.1495 100.196 26.8754 100.094 26.5902C99.2871 24.353 99.2307 21.7676 100.027 19.5221C100.727 17.5453 102.262 16.062 104.351 15.511C105.119 15.3081 105.918 15.2258 106.711 15.2258C110.595 15.2258 113.037 17.1999 113.308 20.8875H117.511C117.375 14.5239 113.172 11.2339 106.801 11.2339C99.1206 11.2339 95.0078 16.0182 95.0078 22.9958C95.0078 29.9735 99.0303 34.6701 106.847 34.6701C111.095 34.6701 114.166 33.2224 116.153 31.7748V27.6047C113.263 29.6226 110.64 30.7192 107.343 30.7192C105.887 30.7192 104.396 30.5027 103.064 29.9104C101.878 29.384 101.017 28.5039 100.453 27.4155V27.4127Z" fill="white"/>
<path d="M119.628 11.7164H124.192V17.9483C125.276 13.7343 127.763 11.3654 131.467 11.4093V16.1936C127.806 15.7988 124.192 18.2992 124.192 24.0047V34.1847H119.628V11.7164Z" fill="white"/>
<path d="M132.551 26.8123H136.844C136.844 29.2689 138.154 30.9825 141.499 30.9825C143.848 30.9825 145.386 30.1051 145.386 28.3504C145.386 23.4784 133.141 24.926 133.141 17.5097C133.141 13.9098 136.122 11.2339 141.228 11.2339C146.334 11.2339 149.315 13.7782 149.315 18.4309H145.519C145.519 16.2814 144.164 14.7871 141.225 14.7871C138.696 14.7871 137.654 15.8838 137.654 17.156C137.654 21.6332 149.719 20.0978 149.719 27.9529C149.719 32.0353 146.467 34.6673 141.315 34.6673C136.435 34.6673 132.551 32.2985 132.551 26.8123Z" fill="white"/>
<path d="M178.407 12.0647H182.971V17.0684C184.146 13.7783 186.675 11.5383 190.788 11.5383C194.9 11.5383 197.204 13.8194 197.746 17.4632C198.83 13.9949 201.407 11.5383 205.652 11.5383C210.217 11.5383 212.746 14.4336 212.746 19.0424V34.5331H208.182V20.6655C208.182 17.3727 206.736 15.4864 203.798 15.4864C200.23 15.4864 197.833 18.1623 197.833 21.8499V34.5331H193.269V20.6655C193.269 17.3727 191.824 15.4864 188.885 15.4864C185.36 15.4864 182.966 18.1623 182.966 21.8499V34.5331H178.401V12.0647H178.407Z" fill="white"/>
<path d="M115.648 17.6851L97.7207 22.7956L98.4349 26.22L117.511 20.8874L115.648 17.6851Z" fill="white"/>
<path d="M218.44 9.87125L218.394 4.44265L212.774 4.48378L212.746 0.782466L222.174 0.711182L222.248 9.84109L218.44 9.87125Z" fill="white"/>
<path d="M171.135 14.916V12.8927C171.135 12.8927 171.135 12.8844 171.135 12.8789C171.138 12.8488 171.14 12.8186 171.143 12.7885H171.14C171.197 11.3189 172.442 10.1372 173.972 10.1372H176.425V5.51196H173.972C169.783 5.51196 166.373 8.82395 166.373 12.8927V14.916H163.502V18.7353H166.528V34.6262H171.092V18.7353H176.425V14.916H171.138H171.135Z" fill="white"/>
<path d="M10.3639 16.2292V11.7054H5.01191V5.28979H0.24707V26.0391H0.258361V27.0234C0.258361 31.0921 3.66827 34.4041 7.85727 34.4041H10.3103V29.7788H7.85727C6.33015 29.7788 5.08248 28.5998 5.02603 27.1275H5.02885C5.02603 27.1001 5.02321 27.0672 5.02038 27.0371C5.02038 27.0316 5.02038 27.0288 5.02038 27.0234V25.329H5.01191V16.232H10.3639V16.2292Z" fill="white"/>
<path d="M157.998 34.6673V31.4595H154.695V34.6673H157.998Z" fill="white"/>
</g>
<defs>
<clipPath id="clip0_133_975">
<rect width="222" height="34" fill="white" transform="translate(0.24707 0.711182)"/>
</clipPath>
</defs>
</svg>
